HIERARCHY
ROOT Hips
{
	OFFSET 0.000000 0.000000 0.000000
	CHANNELS 6 Xposition Yposition Zposition Zrotation Yrotation Xrotation 
	JOINT LHipJoint
	{
		OFFSET 0.000000 0.000000 0.000000
		CHANNELS 3 Zrotation Yrotation Xrotation
		JOINT LeftUpLeg
		{
			OFFSET 1.363060 -1.794630 0.839290
			CHANNELS 3 Zrotation Yrotation Xrotation
			JOINT LeftLeg
			{
				OFFSET 2.448110 -6.726130 0.000000
				CHANNELS 3 Zrotation Yrotation Xrotation
				JOINT LeftFoot
				{
					OFFSET 2.562200 -7.039590 0.000000
					CHANNELS 3 Zrotation Yrotation Xrotation
					JOINT LeftToeBase
					{
						OFFSET 0.157640 -0.433110 2.322550
						CHANNELS 3 Zrotation Yrotation Xrotation
						End Site
						{
							OFFSET 0.000000 0.000000 0.000000
						}
					}
				}
			}
		}
	}
	JOINT RHipJoint
	{
		OFFSET 0.000000 0.000000 0.000000
		CHANNELS 3 Zrotation Yrotation Xrotation
		JOINT RightUpLeg
		{
			OFFSET -1.305520 -1.794630 0.839290
			CHANNELS 3 Zrotation Yrotation Xrotation
			JOINT RightLeg
			{
				OFFSET -2.542530 -6.985550 0.000000
				CHANNELS 3 Zrotation Yrotation Xrotation
				JOINT RightFoot
				{
					OFFSET -2.568260 -7.056230 0.000000
					CHANNELS 3 Zrotation Yrotation Xrotation
					JOINT RightToeBase
					{
						OFFSET -0.164730 -0.452590 2.363150
						CHANNELS 3 Zrotation Yrotation Xrotation
						End Site
						{
							OFFSET 0.000000 0.000000 0.000000
						}
					}
				}
			}
		}
	}
}
MOTION
Frames: 17
Frame Time: 0.008333
2.340410 16.979577 -0.986773 -36.333052 82.579783 -31.574749 -11.373545 5.550005 -0.493671 -7.146261 16.245588 2.221799 -0.115978 2.585813 35.449809 1.412796 2.702098 23.550527 0.667700 -0.000001 -69.213000 8.533243 -1.137299 4.582651 12.883845 8.589506 -24.719036 3.548452 -0.294698 13.107442 1.100284 7.057770 2.113998 0.783300 0.000000 -46.414800
2.550180 16.962787 -1.028576 -42.245602 82.336315 -37.750643 -11.594565 5.379028 -0.671890 -5.995480 17.836545 0.933581 0.126224 2.576531 38.293375 1.710600 5.199003 24.310576 1.845600 0.000000 -63.790500 8.478438 -1.453263 4.378718 14.065339 7.137596 -24.439436 3.623147 -0.469384 14.089083 1.137592 7.347286 2.576861 0.880900 0.000000 -43.327800
2.755404 16.946584 -1.070573 -47.048176 82.024988 -42.796765 -11.829261 5.185304 -0.861889 -4.962457 19.348530 -0.397909 0.325721 2.571516 41.104091 2.002795 7.912589 24.516596 3.160700 0.000000 -57.152599 8.373196 -1.748245 4.190528 15.146324 5.842707 -24.168285 3.706710 -0.627315 15.123889 1.178894 7.741003 2.666374 0.964500 -0.000000 -40.435100
2.956041 16.931378 -1.111880 -50.735446 81.673018 -46.689791 -12.053281 4.982700 -1.054940 -4.098922 20.706205 -1.770978 0.481942 2.584166 43.834927 2.276513 10.664518 24.155530 4.469300 -0.000000 -50.174100 8.242064 -2.008546 4.029037 16.091804 4.772567 -23.906822 3.787800 -0.769101 16.204816 1.216728 8.170353 2.409572 1.017000 0.000000 -37.908300
3.152404 16.917585 -1.152616 -53.613495 81.302346 -49.716415 -12.258955 4.773701 -1.241706 -3.408471 21.849754 -3.202170 0.604727 2.619220 46.469355 2.520618 13.260602 23.259167 5.616200 -0.000000 -43.524100 8.092205 -2.233602 3.909984 16.904762 4.001635 -23.637421 3.862303 -0.892573 17.274061 1.240407 8.531662 1.868603 1.020800 0.000000 -35.815700
3.344831 16.905807 -1.192216 -55.866847 80.955756 -52.047477 -12.435372 4.566488 -1.405590 -2.939772 22.705273 -4.705276 0.703771 2.677355 48.986228 2.729840 15.572620 21.916814 6.499100 -0.000000 -37.769700 7.940507 -2.420063 3.832418 17.563403 3.518734 -23.370147 3.923572 -0.998027 18.309468 1.245737 8.781892 1.107445 0.975400 0.000000 -34.254900
3.533869 16.896515 -1.231103 -57.839033 80.657714 -54.015529 -12.585899 4.360882 -1.533131 -2.687654 23.228622 -6.301303 0.790071 2.753573 51.386453 2.899571 17.502064 20.190743 7.045800 -0.000000 -33.005999 7.787464 -2.574120 3.797984 18.083414 3.311396 -23.099544 3.971929 -1.083530 19.254396 1.227578 8.863801 0.209549 0.885700 0.000000 -33.260000
3.719983 16.890124 -1.269463 -59.780224 80.436669 -55.870561 -12.711876 4.159278 -1.611716 -2.653469 23.385365 -7.992177 0.870811 2.841459 53.660382 3.027937 19.008728 18.127697 7.231301 0.000000 -29.047700 7.638506 -2.700663 3.796741 18.469532 3.311995 -22.827209 4.006587 -1.148636 20.075581 1.185042 8.764307 -0.750042 0.767100 -0.000000 -32.853200
3.903775 16.886894 -1.308155 -62.001388 80.301605 -57.923581 -12.822976 3.957665 -1.630054 -2.798980 23.158762 -9.775854 0.950800 2.931309 55.797944 3.115480 20.087901 15.771422 7.065800 0.000000 -25.745100 7.487613 -2.809814 3.822116 18.752167 3.458810 -22.546396 4.031290 -1.191348 20.722465 1.117073 8.466236 -1.696235 0.634800 -0.000000 -32.979600
4.085729 16.887055 -1.347840 -64.736033 80.257224 -60.415940 -12.926399 3.753469 -1.579458 -3.085385 22.542855 -11.628969 1.030489 3.013892 57.775402 3.165770 20.775170 13.172237 6.595401 0.000000 -22.929800 7.332494 -2.909293 3.861150 18.952644 3.666902 -22.249653 4.048660 -1.210365 21.162492 1.025519 7.982991 -2.570081 0.503900 0.000000 -33.567899
4.265889 16.890625 -1.389078 -68.141796 80.295767 -63.527552 -13.027825 3.545374 -1.460576 -3.461754 21.559756 -13.501016 1.106110 3.083355 59.562116 3.182924 21.120357 10.356377 5.874701 -0.000000 -20.293900 7.173128 -3.003552 3.894691 19.087003 3.845746 -21.912776 4.061047 -1.204670 21.375352 0.914422 7.350102 -3.334600 0.384900 0.000000 -34.468600
4.444447 16.897589 -1.432475 -72.361359 80.392369 -67.418297 -13.135081 3.330666 -1.274365 -3.869189 20.242696 -15.349637 1.172220 3.134920 61.128980 3.175103 21.197737 7.393182 4.983000 -0.000000 -17.849900 7.004755 -3.096743 3.910288 19.179017 3.932733 -21.509594 4.072456 -1.172003 21.337547 0.788054 6.600204 -3.965369 0.281699 -0.000000 -35.505200
4.621327 16.907826 -1.478403 -77.433951 80.510431 -72.149334 -13.252410 3.109476 -1.027771 -4.255529 18.645146 -17.131321 1.222161 3.168435 62.449651 3.152032 21.089238 4.354860 3.997499 -0.000000 -15.550400 6.825938 -3.188731 3.895387 19.245105 3.879131 -21.008603 4.085958 -1.110417 21.037321 0.652204 5.776236 -4.453559 0.194400 -0.000000 -36.516600
4.796330 16.921129 -1.526829 -83.283313 80.606355 -77.665689 -13.379494 2.884511 -0.731340 -4.580085 16.834394 -18.812943 1.250326 3.187275 63.505662 3.124911 20.880030 1.323786 2.987800 0.000001 -13.416100 6.638567 -3.276068 3.840940 19.297059 3.657688 -20.379505 4.103717 -1.018425 20.471607 0.513429 4.922401 -4.800213 0.120299 0.000000 -37.383900
4.969276 16.937201 -1.577474 -89.710669 80.636526 -83.785551 -13.510220 2.660253 -0.397873 -4.817371 14.885124 -20.377945 1.253771 3.196613 64.289732 3.105040 20.649728 -1.619539 2.006400 0.000000 -11.465700 6.449026 -3.353261 3.742620 19.341143 3.261656 -19.599707 4.126744 -0.895651 19.646926 0.378447 4.079681 -5.012792 0.055800 0.000000 -38.050700
5.139904 16.955658 -1.629723 -96.418565 80.568647 -90.226554 -13.631552 2.442289 -0.042178 -4.961215 12.872589 -21.819424 1.232751 3.201111 64.804424 3.102317 20.465424 -4.408180 1.084600 -0.000000 -9.683200 6.270459 -3.414065 3.598638 19.373943 2.693287 -18.659134 4.154316 -0.744232 18.585674 0.254147 3.288287 -5.105480 -0.001800 0.000000 -38.509900
5.308373 16.976093 -1.682894 -103.099736 80.380297 -96.677475 -13.731395 2.232383 0.325214 -5.011513 10.861893 -23.164103 1.191159 3.202240 65.069639 3.123605 20.371554 -6.991301 0.235600 0.000000 -8.053199 6.111762 -3.456267 3.420628 19.398840 1.990739 -17.570894 4.185680 -0.566736 17.307283 0.143601 2.559178 -5.086761 -0.055900 0.000001 -38.812800
